<?xml version="1.0" encoding="utf-8"?>
<!-- Generator: Adobe Illustrator 19.1.0, SVG Export Plug-In . SVG Version: 6.00 Build 0)  -->
<svg version="1.1" id="Calque_1" xmlns="http://www.w3.org/2000/svg" xmlns:xlink="http://www.w3.org/1999/xlink" x="0px" y="0px"
	 viewBox="-199 183 200 35" style="enable-background:new -199 183 200 35;" xml:space="preserve">
<style type="text/css">
	.st0{fill:#BBDC00;}
</style>
<polygon class="st0" points="-159.1,183.8 -153.7,194.8 -141.5,196.6 -150.3,205.2 -148.2,217.2 -159.1,211.5 -169.9,217.2 
	-167.9,205.2 -176.6,196.6 -164.5,194.8 "/>
<polygon class="st0" points="-118.6,183.8 -113.2,194.8 -101,196.6 -109.8,205.2 -107.8,217.2 -118.6,211.5 -129.5,217.2 
	-127.4,205.2 -136.2,196.6 -124,194.8 "/>
<polygon class="st0" points="-78.1,183.8 -72.7,194.8 -60.6,196.6 -69.4,205.2 -67.3,217.2 -78.1,211.5 -89,217.2 -86.9,205.2 
	-95.7,196.6 -83.6,194.8 "/>
<polygon class="st0" points="-37.7,183.8 -32.2,194.8 -20.1,196.6 -28.9,205.2 -26.8,217.2 -37.7,211.5 -48.5,217.2 -46.4,205.2 
	-55.2,196.6 -43.1,194.8 "/>
</svg>
