<?xml version="1.0" encoding="utf-8"?>
<!-- Generator: Adobe Illustrator 19.1.0, SVG Export Plug-In . SVG Version: 6.00 Build 0)  -->
<svg version="1.1" id="Calque_1" xmlns="http://www.w3.org/2000/svg" xmlns:xlink="http://www.w3.org/1999/xlink" x="0px" y="0px"
	 viewBox="0 0 320 185" style="enable-background:new 0 0 320 185;" xml:space="preserve">
<style type="text/css">
	.st0{fill:#404041;}
	.st1{fill:none;stroke:#BBDC00;stroke-width:4.6144;stroke-miterlimit:10;}
	.st2{fill:none;stroke:#F1F1F2;stroke-width:2.7687;stroke-miterlimit:10;}
	.st3{fill:none;stroke:#404041;stroke-width:1.5;stroke-miterlimit:10;}
	.st4{fill:#FFFFFF;}
	.st5{fill:#BBDC00;}
	.st6{fill:none;stroke:#BBDC00;stroke-width:0.7;stroke-miterlimit:10;}
	.st7{fill:#EC1C24;}
</style>
<g>
	<path class="st0" d="M116.2,165.6c0.1,3.5-2.6,6.5-6.1,6.6l-90.7,3.5c-3.5,0.1-6.5-2.6-6.6-6.1L7,21.9c-0.1-3.5,2.6-6.5,6.1-6.6
		l90.7-3.5c3.5-0.1,6.5,2.6,6.6,6.1L116.2,165.6z"/>
	<path class="st1" d="M76.5,103.3c1.4-2.7,2.2-5.8,2.1-9.1c-0.4-10-8.8-17.7-18.7-17.3"/>
	<path class="st1" d="M45.3,104.5c3.3,5.3,9.3,8.7,16,8.4c6.7-0.3,12.4-4.1,15.3-9.6"/>
	<path class="st2" d="M59.8,76.9c-10,0.4-17.7,8.8-17.3,18.7c0.1,3.3,1.1,6.3,2.8,8.9"/>
	<line class="st3" x1="60.6" y1="94.9" x2="38.1" y2="109"/>
	<line class="st3" x1="60.6" y1="94.9" x2="84" y2="107.3"/>
	<line class="st3" x1="60.6" y1="94.9" x2="59.5" y2="68.2"/>
	<g>
		<path class="st4" d="M53.5,103.7l1.1,0c0.7,0,1.1,0.3,1.1,0.9v0c0,0.6-0.5,1-1.1,1l-0.7,0l0,1l-0.3,0L53.5,103.7z M54.6,105.3
			c0.5,0,0.8-0.3,0.8-0.7v0c0-0.4-0.3-0.6-0.8-0.6l-0.7,0l0,1.3L54.6,105.3z"/>
		<path class="st4" d="M56.2,105.1L56.2,105.1c0-0.8,0.5-1.5,1.4-1.6c0.9,0,1.5,0.6,1.5,1.4l0,0c0,0.8-0.5,1.5-1.4,1.6
			C56.9,106.6,56.3,105.9,56.2,105.1z M58.8,105L58.8,105c0-0.7-0.5-1.2-1.2-1.2c-0.7,0-1.1,0.6-1.1,1.2l0,0c0,0.7,0.5,1.2,1.2,1.1
			C58.4,106.2,58.9,105.6,58.8,105z"/>
		<path class="st4" d="M59.8,103.5l0.3,0l0.1,2.9l-0.3,0L59.8,103.5z"/>
		<path class="st4" d="M61,103.4l0.3,0l1.9,2.2l-0.1-2.3l0.3,0l0.1,2.9l-0.3,0l-2-2.3l0.1,2.4l-0.3,0L61,103.4z"/>
		<path class="st4" d="M65,103.6l-1,0l0-0.3l2.3-0.1l0,0.3l-1,0l0.1,2.6l-0.3,0L65,103.6z"/>
		<path class="st4" d="M66.8,105.7l0.2-0.2c0.3,0.3,0.6,0.4,1,0.4c0.4,0,0.6-0.2,0.6-0.5l0,0c0-0.3-0.2-0.4-0.8-0.5
			c-0.7-0.1-1-0.3-1-0.8l0,0c0-0.5,0.4-0.8,0.9-0.8c0.4,0,0.7,0.1,1,0.3l-0.2,0.3c-0.3-0.2-0.5-0.3-0.8-0.3c-0.4,0-0.6,0.2-0.6,0.5
			l0,0c0,0.3,0.2,0.4,0.8,0.5c0.7,0.1,1,0.3,1,0.8v0c0,0.5-0.4,0.8-1,0.9C67.5,106.1,67.1,106,66.8,105.7z"/>
	</g>
	<g>
		<path class="st5" d="M65.5,97.2l-1,3l-9.1,0.4l0-0.4c2.6-2.5,4.4-4.6,5.4-6.2s1.5-3,1.5-4.3c0-1-0.4-1.8-1-2.4
			c-0.6-0.6-1.4-0.9-2.2-0.9c-0.8,0-1.4,0.3-2,0.7c-0.6,0.5-1,1.1-1.3,2l-0.4,0c0.1-1.4,0.6-2.5,1.3-3.3c0.8-0.8,1.7-1.2,2.9-1.2
			c1.3,0,2.3,0.3,3.2,1.1c0.9,0.8,1.3,1.7,1.4,2.8c0,0.8-0.1,1.6-0.5,2.4c-0.5,1.3-1.4,2.6-2.6,4c-1.8,2.1-2.9,3.4-3.4,3.9l4-0.2
			c0.8,0,1.4-0.1,1.7-0.2c0.3-0.1,0.6-0.2,0.9-0.4c0.3-0.2,0.5-0.5,0.7-0.8L65.5,97.2z"/>
	</g>
	<g>
		<path class="st4" d="M93.7,148l-0.5,0l-0.1-1.8l-2.3,0.1l0.1,1.8l-0.5,0l-0.2-4l0.5,0l0.1,1.8l2.3-0.1l-0.1-1.8l0.5,0L93.7,148z"
			/>
		<path class="st4" d="M87.8,148.3l-0.4,0l-2-4l0.5,0l0.5,1l2.2-0.1l0.4-1.1l0.5,0L87.8,148.3z M86.6,145.8l1,2l0.8-2.1L86.6,145.8z
			"/>
		<path class="st4" d="M85.7,148.4l-0.5,0l-1.6-3.4l-1.3,3.5l-0.5,0l1.6-4.1l0.4,0L85.7,148.4z"/>
		<path class="st4" d="M81,148.5l-2.9,0.1l0-0.4l2.5-0.1l-0.1-1.4l-2.2,0.1l0-0.4l2.2-0.1l-0.1-1.4l-2.5,0.1l0-0.4l2.9-0.1L81,148.5
			z"/>
		<path class="st4" d="M73.9,148.8l-0.4,0l-2-4l0.5,0l0.5,1l2.2-0.1l0.4-1.1l0.5,0L73.9,148.8z M72.7,146.3l1,2l0.8-2.1L72.7,146.3z
			"/>
		<path class="st4" d="M69.2,149l-1.5,0.1c-0.9,0-1.5-0.4-1.6-1.2l0,0c0-0.9,0.7-1.3,1.5-1.4l1,0l-0.1-1.4l0.5,0L69.2,149z
			 M67.6,146.9c-0.7,0-1.1,0.4-1.1,0.9l0,0c0,0.6,0.5,0.9,1.1,0.8l1,0l-0.1-1.8L67.6,146.9z"/>
		<path class="st4" d="M65.3,149.1l-2.9,0.1l0-0.4l2.5-0.1l-0.1-1.4l-2.2,0.1l0-0.4l2.2-0.1l-0.1-1.4l-2.5,0.1l0-0.4l2.9-0.1
			L65.3,149.1z"/>
		<path class="st4" d="M61.5,149.3l-1.7,0.1c-0.5,0-0.9-0.1-1.2-0.4c-0.2-0.2-0.3-0.5-0.3-0.8l0,0c0-0.7,0.4-1.1,1-1.2l-1.3-1.6
			l0.6,0l1.2,1.5l1.1,0l-0.1-1.6l0.5,0L61.5,149.3z M59.7,147.3c-0.6,0-1,0.4-1,0.9l0,0c0,0.5,0.4,0.8,1.1,0.8l1.2,0l-0.1-1.6
			L59.7,147.3z"/>
		<path class="st4" d="M57.3,149.5l-0.5,0l-1.6-2.1l-1.4,2.3l-0.5,0l-0.2-4l0.5,0l0.1,3.3l1.4-2.2l0,0l1.5,2.1l-0.1-3.3l0.4,0
			L57.3,149.5z"/>
		<path class="st4" d="M50.8,149.7l-0.4,0l-2-4l0.5,0l0.5,1l2.2-0.1l0.4-1.1l0.5,0L50.8,149.7z M49.6,147.2l1,2l0.8-2.1L49.6,147.2z
			"/>
		<path class="st4" d="M47.8,149.8l-0.4,0l-2.7-3.1l0.1,3.2l-0.4,0l-0.2-4l0.4,0l2.7,3.2l-0.1-3.3l0.4,0L47.8,149.8z"/>
		<path class="st4" d="M43.2,150l-2.9,0.1l0-0.4l2.5-0.1l-0.1-1.4l-2.2,0.1l0-0.4l2.2-0.1l-0.1-1.4l-2.5,0.1l0-0.4l2.9-0.1L43.2,150
			z"/>
		<path class="st4" d="M39.4,150.2l-0.4,0l-2.7-3.1l0.1,3.2l-0.4,0l-0.2-4l0.4,0l2.7,3.2l-0.1-3.3l0.4,0L39.4,150.2z"/>
		<path class="st4" d="M33.8,150l1.4-0.1l0,0.4l-3.2,0.1l0-0.4l1.4-0.1l-0.1-3.6l0.5,0L33.8,150z"/>
		<path class="st4" d="M90,141.1l-2.9,0.1l0-0.4l2.5-0.1l-0.1-1.4l-2.2,0.1l0-0.4l2.2-0.1l-0.1-1.4l-2.5,0.1l0-0.4l2.9-0.1L90,141.1
			z"/>
		<path class="st4" d="M86.2,141.3l-1.7,0.1c-0.5,0-0.9-0.1-1.2-0.4c-0.2-0.2-0.3-0.5-0.3-0.8l0,0c0-0.7,0.4-1.1,1-1.2l-1.3-1.6
			l0.6,0l1.2,1.5l1.1,0l-0.1-1.6l0.5,0L86.2,141.3z M84.4,139.3c-0.6,0-1,0.4-1,0.9v0c0,0.5,0.4,0.8,1.1,0.8l1.2,0l-0.1-1.6
			L84.4,139.3z"/>
		<path class="st4" d="M82,141.5l-2.9,0.1l0-0.4l2.5-0.1l-0.1-1.4l-2.2,0.1l0-0.4l2.2-0.1l-0.1-1.4l-2.5,0.1l0-0.4l2.9-0.1L82,141.5
			z"/>
		<path class="st4" d="M78.3,139.6L78.3,139.6c0,1.1-0.8,2.1-2,2.2c-0.7,0-1.2-0.2-1.6-0.6l0.3-0.3c0.4,0.3,0.7,0.5,1.3,0.5
			c0.9,0,1.5-0.8,1.5-1.7l0,0c0-0.9-0.7-1.6-1.6-1.6c-0.6,0-0.9,0.2-1.3,0.6l-0.3-0.3c0.4-0.4,0.9-0.7,1.6-0.8
			C77.3,137.5,78.2,138.4,78.3,139.6z"/>
		<path class="st4" d="M72.8,141.4l1.4-0.1l0,0.4l-3.2,0.1l0-0.4l1.4-0.1l-0.1-3.6l0.5,0L72.8,141.4z"/>
		<path class="st4" d="M70.1,141.9l-0.5,0l-0.2-4l0.5,0L70.1,141.9z"/>
		<path class="st4" d="M68.6,140L68.6,140c0,1.1-0.8,2.1-2,2.2c-1.2,0-2.1-0.9-2.1-2l0,0c0-1.1,0.8-2.1,2-2.2
			C67.7,137.9,68.6,138.8,68.6,140z M65,140.1L65,140.1c0,0.9,0.7,1.6,1.7,1.6c0.9,0,1.5-0.8,1.5-1.7l0,0c0-0.9-0.7-1.6-1.7-1.6
			C65.6,138.4,64.9,139.2,65,140.1z"/>
		<path class="st4" d="M63.6,142.2l-0.4,0l-2.7-3.1l0.1,3.2l-0.4,0l-0.2-4l0.4,0l2.7,3.2l-0.1-3.3l0.4,0L63.6,142.2z"/>
		<path class="st4" d="M57.1,143l-0.4,0l2.5-5.4l0.4,0L57.1,143z"/>
		<path class="st4" d="M56.2,142.5l-1.7,0.1c-0.5,0-0.8-0.1-1.1-0.3c-0.2-0.2-0.3-0.4-0.3-0.6v0c0-0.5,0.3-0.8,0.6-1
			c-0.5-0.1-0.9-0.4-0.9-0.9l0,0c0-0.7,0.5-1.1,1.4-1.2l1.8-0.1L56.2,142.5z M54.4,140.3l1.3,0l-0.1-1.4l-1.4,0.1
			c-0.6,0-1,0.3-1,0.8l0,0C53.3,140.1,53.7,140.4,54.4,140.3z M53.6,141.5c0,0.4,0.3,0.6,0.9,0.6l1.2,0l-0.1-1.4l-1.2,0
			C53.9,140.8,53.5,141,53.6,141.5L53.6,141.5z"/>
		<path class="st4" d="M52,142.6l-2.9,0.1l0-0.4l2.5-0.1l-0.1-1.4l-2.2,0.1l0-0.4l2.2-0.1l-0.1-1.4l-2.5,0.1l0-0.4l2.9-0.1L52,142.6
			z"/>
		<path class="st4" d="M46.7,142.8l-0.5,0l-1.3-3.3l-1,3.4l-0.4,0l-1.2-3.3l-1,3.4l-0.5,0l1.3-4.1l0.4,0l1.2,3.2l1-3.3l0.4,0
			L46.7,142.8z"/>
		<path class="st4" d="M40.1,143.1l-2.9,0.1l0-0.4l2.5-0.1l-0.1-1.4l-2.2,0.1l0-0.4l2.2-0.1l-0.1-1.4l-2.5,0.1l0-0.4l2.9-0.1
			L40.1,143.1z"/>
		<path class="st4" d="M35.1,142.9l1.4-0.1l0,0.4l-3.2,0.1l0-0.4l1.4-0.1l-0.1-3.6l0.5,0L35.1,142.9z"/>
	</g>
	<line class="st6" x1="104.4" y1="152.7" x2="21.8" y2="155.9"/>
	<line class="st6" x1="103.6" y1="132.3" x2="21" y2="135.5"/>
	<g>
		<path class="st4" d="M27,41.4l0.5,0l0.1,1.8l2.3-0.1l-0.1-1.8l0.5,0l0.2,4l-0.5,0l-0.1-1.8l-2.3,0.1l0.1,1.8l-0.5,0L27,41.4z"/>
		<path class="st4" d="M32.9,41.2l0.4,0l2,4l-0.5,0l-0.5-1l-2.2,0.1l-0.4,1.1l-0.5,0L32.9,41.2z M34.1,43.7l-1-2l-0.8,2.1L34.1,43.7
			z"/>
		<path class="st4" d="M35,41.1l0.5,0l1.6,3.4l1.3-3.5l0.5,0l-1.6,4.1l-0.4,0L35,41.1z"/>
		<path class="st4" d="M39.7,41l2.9-0.1l0,0.4l-2.5,0.1l0.1,1.4l2.2-0.1l0,0.4l-2.2,0.1l0.1,1.4l2.5-0.1l0,0.4L39.8,45L39.7,41z"/>
		<path class="st4" d="M46.7,40.6l0.4,0l2,4l-0.5,0l-0.5-1L46,43.7l-0.4,1.1l-0.5,0L46.7,40.6z M48,43.2l-1-2l-0.8,2.1L48,43.2z"/>
		<path class="st4" d="M51.5,40.5l1.5-0.1c0.9,0,1.5,0.4,1.6,1.2l0,0c0,0.9-0.7,1.3-1.5,1.4l-1,0l0.1,1.4l-0.5,0L51.5,40.5z
			 M53.1,42.6c0.7,0,1.1-0.4,1.1-0.9l0,0c0-0.6-0.5-0.9-1.1-0.8l-1,0l0.1,1.8L53.1,42.6z"/>
		<path class="st4" d="M55.4,40.3l2.9-0.1l0,0.4l-2.5,0.1l0.1,1.4l2.2-0.1l0,0.4l-2.2,0.1l0.1,1.4l2.5-0.1l0,0.4l-2.9,0.1L55.4,40.3
			z"/>
		<path class="st4" d="M59.2,40.2l1.7-0.1c0.5,0,0.9,0.1,1.2,0.4c0.2,0.2,0.3,0.5,0.3,0.8l0,0c0,0.7-0.4,1.1-1,1.2l1.3,1.6l-0.6,0
			l-1.2-1.5l-1.1,0l0.1,1.6l-0.5,0L59.2,40.2z M61,42.2c0.6,0,1-0.4,1-0.9l0,0c0-0.5-0.4-0.8-1.1-0.8l-1.2,0l0.1,1.6L61,42.2z"/>
		<path class="st4" d="M63.4,40l0.5,0l1.6,2.1l1.4-2.3l0.5,0l0.2,4l-0.5,0l-0.1-3.3l-1.4,2.2l0,0l-1.5-2.1L64,44l-0.4,0L63.4,40z"/>
		<path class="st4" d="M69.9,39.7l0.4,0l2,4l-0.5,0l-0.5-1l-2.2,0.1l-0.4,1.1l-0.5,0L69.9,39.7z M71.1,42.3l-1-2l-0.8,2.1L71.1,42.3
			z"/>
		<path class="st4" d="M72.9,39.7l0.4,0l2.7,3.1l-0.1-3.2l0.4,0l0.2,4l-0.4,0l-2.7-3.2l0.1,3.3l-0.4,0L72.9,39.7z"/>
		<path class="st4" d="M77.5,39.5l2.9-0.1l0,0.4l-2.5,0.1l0.1,1.4l2.2-0.1l0,0.4L78,41.7l0.1,1.4l2.5-0.1l0,0.4l-2.9,0.1L77.5,39.5z
			"/>
		<path class="st4" d="M81.3,39.3l0.4,0l2.7,3.1l-0.1-3.2l0.4,0l0.2,4l-0.4,0L81.8,40l0.1,3.3l-0.4,0L81.3,39.3z"/>
		<path class="st4" d="M86.9,39.5l-1.4,0.1l0-0.4l3.2-0.1l0,0.4l-1.4,0.1l0.1,3.6l-0.5,0L86.9,39.5z"/>
		<path class="st4" d="M42.1,47.9l1.4-0.1c1.3,0,2.2,0.8,2.2,1.9l0,0c0,1.1-0.8,2-2.1,2.1l-1.4,0.1L42.1,47.9z M42.6,48.3l0.1,3.2
			l0.9,0c1,0,1.6-0.8,1.6-1.6l0,0c0-0.9-0.7-1.6-1.7-1.5L42.6,48.3z"/>
		<path class="st4" d="M46.6,50.1l-0.1-2.3l0.5,0l0.1,2.3c0,0.9,0.5,1.3,1.3,1.3c0.7,0,1.2-0.5,1.2-1.4l-0.1-2.3l0.5,0l0.1,2.3
			c0,1.2-0.6,1.8-1.6,1.8C47.4,51.8,46.7,51.2,46.6,50.1z"/>
		<path class="st4" d="M50.9,49.6L50.9,49.6c0-1.1,0.8-2.1,2-2.2c0.7,0,1.2,0.2,1.6,0.6l-0.3,0.3c-0.4-0.3-0.7-0.5-1.3-0.5
			c-0.9,0-1.5,0.8-1.5,1.7l0,0c0,0.9,0.7,1.6,1.6,1.6c0.6,0,0.9-0.2,1.3-0.6l0.3,0.3c-0.4,0.4-0.9,0.7-1.6,0.8
			C51.8,51.6,50.9,50.7,50.9,49.6z"/>
		<path class="st4" d="M55.2,47.4l0.5,0l0.1,2.4l2.2-2.5l0.6,0l-1.7,1.8l1.9,2.2l-0.6,0l-1.6-1.9l-0.8,0.9l0,1.1l-0.5,0L55.2,47.4z"
			/>
		<path class="st4" d="M61.1,47.2L64,47l0,0.4l-2.4,0.1l0.1,1.4l2.2-0.1l0,0.4l-2.2,0.1l0.1,1.8l-0.5,0L61.1,47.2z"/>
		<path class="st4" d="M65.9,46.9l0.4,0l2,4l-0.5,0l-0.5-1L65.1,50L64.7,51l-0.5,0L65.9,46.9z M67.1,49.5l-1-2l-0.8,2.1L67.1,49.5z"
			/>
		<path class="st4" d="M68.6,48.9L68.6,48.9c0-1.1,0.8-2.1,2-2.2c0.7,0,1.2,0.2,1.6,0.6l-0.3,0.3c-0.4-0.3-0.7-0.5-1.3-0.5
			c-0.9,0-1.5,0.8-1.5,1.7l0,0c0,0.9,0.7,1.6,1.6,1.6c0.6,0,0.9-0.2,1.3-0.6l0.3,0.3c-0.4,0.4-0.9,0.7-1.6,0.8
			C69.5,50.9,68.6,50,68.6,48.9z"/>
		<path class="st4" d="M72.9,46.7l2.9-0.1l0,0.4l-2.5,0.1l0.1,1.4l2.2-0.1l0,0.4l-2.2,0.1l0.1,1.4l2.5-0.1l0,0.4l-2.9,0.1L72.9,46.7
			z"/>
	</g>
	<line class="st6" x1="17.2" y1="36.7" x2="99.7" y2="33.5"/>
	<line class="st6" x1="18" y1="57.2" x2="100.5" y2="54"/>
</g>
<g>
	<path class="st0" d="M300.6,173.1c-0.3,3.5-3.4,6.1-6.9,5.9l-90.4-7.3c-3.5-0.3-6.1-3.4-5.9-6.9l12-147.4c0.3-3.5,3.4-6.1,6.9-5.9
		l90.4,7.3c3.5,0.3,6.1,3.4,5.9,6.9L300.6,173.1z"/>
	<path class="st1" d="M270.2,105.6c1.7-2.5,2.9-5.5,3.1-8.8c0.8-9.9-6.6-18.6-16.5-19.5"/>
	<path class="st1" d="M239.1,103.1c2.7,5.6,8.2,9.7,14.9,10.3c6.7,0.5,12.8-2.6,16.3-7.7"/>
	<path class="st1" d="M256.8,77.3c-9.9-0.8-18.6,6.6-19.5,16.5c-0.3,3.3,0.4,6.4,1.7,9.2"/>
	<line class="st3" x1="255.4" y1="95.3" x2="231.4" y2="106.7"/>
	<line class="st3" x1="255.4" y1="95.3" x2="277.2" y2="110.4"/>
	<line class="st3" x1="255.4" y1="95.3" x2="257.5" y2="68.7"/>
	<g>
		<path class="st4" d="M247.4,103.3l1.1,0.1c0.7,0.1,1.1,0.4,1,1l0,0c-0.1,0.6-0.6,0.9-1.2,0.9l-0.7-0.1l-0.1,1l-0.3,0L247.4,103.3z
			 M248.3,105c0.5,0,0.8-0.2,0.8-0.6l0,0c0-0.4-0.3-0.7-0.7-0.7l-0.7-0.1l-0.1,1.3L248.3,105z"/>
		<path class="st4" d="M249.9,105L249.9,105c0.1-0.8,0.7-1.5,1.6-1.4s1.4,0.8,1.3,1.6l0,0c-0.1,0.8-0.7,1.4-1.6,1.4
			S249.8,105.8,249.9,105z M252.5,105.2L252.5,105.2c0.1-0.7-0.4-1.2-1-1.3c-0.7-0.1-1.2,0.4-1.2,1.1l0,0c-0.1,0.7,0.4,1.2,1,1.3
			C251.9,106.3,252.4,105.8,252.5,105.2z"/>
		<path class="st4" d="M253.6,103.8l0.3,0l-0.2,2.9l-0.3,0L253.6,103.8z"/>
		<path class="st4" d="M254.8,103.9l0.3,0l1.6,2.5l0.2-2.3l0.3,0L257,107l-0.3,0l-1.7-2.5l-0.2,2.4l-0.3,0L254.8,103.9z"/>
		<path class="st4" d="M258.8,104.5l-1-0.1l0-0.3l2.3,0.2l0,0.3l-1-0.1l-0.2,2.6l-0.3,0L258.8,104.5z"/>
		<path class="st4" d="M260.3,106.8l0.2-0.2c0.3,0.3,0.6,0.5,1,0.5c0.4,0,0.7-0.2,0.7-0.4v0c0-0.3-0.1-0.4-0.7-0.6
			c-0.7-0.2-0.9-0.4-0.9-0.9l0,0c0-0.5,0.5-0.8,1-0.7c0.4,0,0.7,0.2,1,0.4l-0.2,0.2c-0.2-0.2-0.5-0.4-0.8-0.4
			c-0.4,0-0.6,0.2-0.7,0.4l0,0c0,0.3,0.1,0.4,0.7,0.6c0.6,0.2,0.9,0.5,0.9,0.9l0,0c0,0.5-0.5,0.8-1.1,0.7
			C261,107.4,260.6,107.2,260.3,106.8z"/>
	</g>
	<g>
		<path class="st5" d="M251.3,88c0.5-1,1.1-1.8,1.9-2.3c0.7-0.5,1.6-0.7,2.6-0.6c1.2,0.1,2.1,0.6,2.7,1.4c0.5,0.6,0.6,1.3,0.6,2
			c-0.1,1.1-0.9,2.2-2.4,3.3c0.9,0.4,1.6,1,2,1.8c0.4,0.7,0.6,1.6,0.5,2.5c-0.1,1.3-0.6,2.5-1.6,3.4c-1.2,1.2-2.9,1.7-5,1.5
			c-1-0.1-1.7-0.3-2.1-0.6c-0.4-0.3-0.5-0.6-0.5-0.9c0-0.2,0.1-0.4,0.3-0.6c0.2-0.2,0.4-0.2,0.7-0.2c0.2,0,0.4,0.1,0.6,0.1
			c0.1,0,0.4,0.2,0.8,0.5s0.7,0.4,0.9,0.5c0.3,0.1,0.6,0.2,0.9,0.2c0.8,0.1,1.5-0.2,2.1-0.7c0.6-0.6,1-1.2,1-2.1
			c0-0.6,0-1.2-0.3-1.8c-0.2-0.4-0.4-0.8-0.6-1c-0.3-0.3-0.7-0.6-1.3-0.9c-0.5-0.3-1.1-0.5-1.7-0.5l-0.4,0l0-0.3
			c0.6,0,1.2-0.2,1.9-0.5c0.6-0.3,1.1-0.7,1.4-1.2c0.3-0.5,0.5-1,0.5-1.6c0.1-0.8-0.1-1.4-0.6-2c-0.4-0.5-1-0.8-1.8-0.9
			c-1.2-0.1-2.2,0.5-3.1,1.6L251.3,88z"/>
	</g>
	<g>
		<path class="st4" d="M288.7,152.5l-0.5,0l0.1-1.8l-2.3-0.2l-0.1,1.8l-0.5,0l0.3-4l0.5,0l-0.1,1.8l2.3,0.2l0.1-1.8l0.5,0
			L288.7,152.5z"/>
		<path class="st4" d="M282.9,152.1l-0.4,0l-1.5-4.2l0.5,0l0.4,1.1l2.2,0.2l0.6-1l0.5,0L282.9,152.1z M282,149.4l0.7,2.1l1.1-2
			L282,149.4z"/>
		<path class="st4" d="M280.7,151.9l-0.5,0l-1.1-3.6l-1.7,3.3l-0.5,0l2.1-3.9l0.4,0L280.7,151.9z"/>
		<path class="st4" d="M276.1,151.5l-2.9-0.2l0-0.4l2.4,0.2l0.1-1.4l-2.2-0.2l0-0.4l2.2,0.2l0.1-1.4l-2.5-0.2l0-0.4l2.9,0.2
			L276.1,151.5z"/>
		<path class="st4" d="M269.5,150.6l1.3,0.1l0,0.4l-3.2-0.3l0-0.4l1.3,0.1l0.3-3.6l0.5,0L269.5,150.6z"/>
		<path class="st4" d="M267.4,148.8L267.4,148.8c-0.1,1.1-1,2-2.2,1.9c-1.2-0.1-2-1.1-1.9-2.2l0,0c0.1-1.1,1-2,2.2-1.9
			C266.8,146.7,267.5,147.7,267.4,148.8z M263.8,148.5L263.8,148.5c-0.1,0.9,0.5,1.7,1.4,1.8c0.9,0.1,1.6-0.6,1.7-1.5l0,0
			c0.1-0.9-0.5-1.7-1.4-1.8C264.6,146.9,263.9,147.6,263.8,148.5z"/>
		<path class="st4" d="M260.8,148.2L260.8,148.2c-0.1,1.1-1,2-2.2,1.9c-0.7-0.1-1.1-0.3-1.5-0.7l0.3-0.3c0.3,0.3,0.6,0.5,1.2,0.6
			c0.9,0.1,1.6-0.6,1.7-1.5l0,0c0.1-1-0.5-1.7-1.5-1.8c-0.5,0-0.9,0.1-1.2,0.3l-0.1,1l1.2,0.1l0,0.4l-1.7-0.1l0.1-1.6
			c0.4-0.3,1-0.5,1.7-0.5C260.2,146.1,260.9,147.1,260.8,148.2z"/>
		<path class="st4" d="M256.3,147.9L256.3,147.9c-0.1,1.1-1,2-2.2,1.9c-1.2-0.1-2-1.1-1.9-2.2l0,0c0.1-1.1,1-2,2.2-1.9
			C255.7,145.8,256.4,146.8,256.3,147.9z M252.7,147.6L252.7,147.6c-0.1,0.9,0.5,1.7,1.4,1.8c0.9,0.1,1.6-0.6,1.7-1.5l0,0
			c0.1-0.9-0.5-1.7-1.4-1.8C253.5,146,252.8,146.7,252.7,147.6z"/>
		<path class="st4" d="M248.4,148.8l1.3,0.1l0,0.4l-3.2-0.3l0-0.4l1.3,0.1l0.3-3.6l0.5,0L248.4,148.8z"/>
		<path class="st4" d="M245.7,149.1l-1.7-0.1c-0.5,0-0.9-0.2-1.1-0.5c-0.2-0.2-0.3-0.5-0.2-0.8l0,0c0.1-0.7,0.5-1,1.2-1.1l-1.1-1.7
			l0.6,0l1,1.7l1.1,0.1l0.1-1.6l0.5,0L245.7,149.1z M244.2,146.9c-0.6,0-1.1,0.2-1.1,0.7l0,0c0,0.5,0.3,0.8,1,0.9l1.2,0.1l0.1-1.6
			L244.2,146.9z"/>
		<path class="st4" d="M241.9,146.7L241.9,146.7c-0.1,1.1-1,2-2.2,1.9c-1.2-0.1-2-1.1-1.9-2.2l0,0c0.1-1.1,1-2,2.2-1.9
			C241.2,144.6,242,145.6,241.9,146.7z M238.2,146.4L238.2,146.4c-0.1,0.9,0.5,1.7,1.4,1.8c0.9,0.1,1.6-0.6,1.7-1.5l0,0
			c0.1-0.9-0.5-1.7-1.4-1.8C239,144.8,238.3,145.5,238.2,146.4z"/>
		<path class="st4" d="M236.9,146l-0.2,2.3l-0.5,0l0.2-2.3c0.1-0.9-0.4-1.4-1.1-1.5c-0.7-0.1-1.2,0.3-1.3,1.2l-0.2,2.3l-0.5,0
			l0.2-2.3c0.1-1.2,0.8-1.7,1.8-1.6C236.4,144.2,237,144.9,236.9,146z"/>
		<path class="st4" d="M232.6,146L232.6,146c-0.1,1.1-1,2-2.2,1.9c-0.7-0.1-1.1-0.3-1.5-0.7l0.3-0.3c0.3,0.3,0.6,0.5,1.2,0.6
			c0.9,0.1,1.6-0.6,1.7-1.5l0,0c0.1-1-0.5-1.7-1.5-1.8c-0.5,0-0.9,0.1-1.2,0.3l-0.1,1l1.2,0.1l0,0.4l-1.7-0.1l0.1-1.6
			c0.4-0.3,1-0.5,1.7-0.5C232,143.8,232.7,144.8,232.6,146z"/>
		<path class="st4" d="M227.8,147.6l-0.5,0l0.1-1.8l-2.3-0.2l-0.1,1.8l-0.5,0l0.3-4l0.5,0l-0.1,1.8l2.3,0.2l0.1-1.8l0.5,0
			L227.8,147.6z"/>
		<path class="st4" d="M220.2,147l-0.4,0l-1.5-4.2l0.5,0l0.4,1.1l2.2,0.2l0.6-1l0.5,0L220.2,147z M219.3,144.4l0.7,2.1l1.1-2
			L219.3,144.4z"/>
		<path class="st4" d="M217.2,146.7l-0.4,0l-2.3-3.4l-0.3,3.2l-0.4,0l0.3-4l0.4,0l2.3,3.5l0.3-3.3l0.4,0L217.2,146.7z"/>
		<path class="st4" d="M285.2,145.2l-0.5,0l0.1-1.8l-2.3-0.2l-0.1,1.8l-0.5,0l0.3-4l0.5,0l-0.1,1.8l2.3,0.2l0.1-1.8l0.5,0
			L285.2,145.2z"/>
		<path class="st4" d="M280.8,144.8l-2.9-0.2l0-0.4l2.4,0.2l0.1-1.4l-2.2-0.2l0-0.4l2.2,0.2l0.1-1.4l-2.5-0.2l0-0.4l2.9,0.2
			L280.8,144.8z"/>
		<path class="st4" d="M277,144.5l-1.7-0.1c-0.5,0-0.9-0.2-1.1-0.5c-0.2-0.2-0.3-0.5-0.2-0.8l0,0c0.1-0.7,0.5-1,1.2-1.1l-1.1-1.7
			l0.6,0l1,1.7l1.1,0.1l0.1-1.6l0.5,0L277,144.5z M275.4,142.3c-0.6,0-1.1,0.2-1.1,0.7l0,0c0,0.5,0.3,0.8,1,0.9l1.2,0.1l0.1-1.6
			L275.4,142.3z"/>
		<path class="st4" d="M273.2,142.2L273.2,142.2c-0.1,1.1-1,2-2.2,1.9c-1.2-0.1-2-1.1-1.9-2.2v0c0.1-1.1,1-2,2.2-1.9
			C272.5,140.1,273.2,141.1,273.2,142.2z M269.5,141.9L269.5,141.9c-0.1,0.9,0.5,1.7,1.4,1.8c0.9,0.1,1.6-0.6,1.7-1.5l0,0
			c0.1-0.9-0.5-1.7-1.4-1.8C270.3,140.3,269.6,141,269.5,141.9z"/>
		<path class="st4" d="M267.9,143.8l-0.5,0l0.3-4l0.5,0L267.9,143.8z"/>
		<path class="st4" d="M266.3,143.7l-0.4,0l-2.3-3.4l-0.3,3.2l-0.4,0l0.3-4l0.4,0l2.3,3.5l0.3-3.3l0.4,0L266.3,143.7z"/>
		<path class="st4" d="M260.3,143.2l-0.5,0l-0.9-3.4l-1.4,3.3l-0.4,0l-0.8-3.4l-1.4,3.2l-0.5,0l1.8-3.9l0.4,0l0.8,3.3l1.4-3.2l0.4,0
			L260.3,143.2z"/>
		<path class="st4" d="M253.6,142.6l-0.5,0l0.3-4l0.5,0L253.6,142.6z"/>
		<path class="st4" d="M251,142l1.3,0.1l0,0.4l-3.2-0.3l0-0.4l1.3,0.1l0.3-3.6l0.5,0L251,142z"/>
		<path class="st4" d="M248.3,142.2l-0.5,0l0.1-1.8l-2.3-0.2l-0.1,1.8l-0.5,0l0.3-4l0.5,0l-0.1,1.8l2.3,0.2l0.1-1.8l0.5,0
			L248.3,142.2z"/>
		<path class="st4" d="M243.9,141.9l-1.4-0.1c-1.3-0.1-2.1-1-2-2.2v0c0.1-1.1,1-1.9,2.3-1.8l1.4,0.1L243.9,141.9z M243.5,141.4
			l0.3-3.2l-0.9-0.1c-1-0.1-1.7,0.6-1.8,1.4l0,0c-0.1,0.9,0.5,1.6,1.5,1.7L243.5,141.4z"/>
		<path class="st4" d="M239.4,141.5l-1.7-0.1c-0.5,0-0.9-0.2-1.1-0.5c-0.2-0.2-0.3-0.5-0.2-0.8l0,0c0.1-0.7,0.5-1,1.2-1.1l-1.1-1.7
			l0.6,0l1,1.7l1.1,0.1l0.1-1.6l0.5,0L239.4,141.5z M237.9,139.3c-0.6,0-1.1,0.2-1.1,0.7l0,0c0,0.5,0.3,0.8,1,0.9l1.2,0.1l0.1-1.6
			L237.9,139.3z"/>
		<path class="st4" d="M233.8,141.1l-0.4,0l-1.5-4.2l0.5,0l0.4,1.1l2.2,0.2l0.6-1l0.5,0L233.8,141.1z M232.9,138.4l0.7,2.1l1.1-2
			L232.9,138.4z"/>
		<path class="st4" d="M231.6,140.8l-0.5,0l-0.9-3.4l-1.4,3.3l-0.4,0l-0.8-3.4l-1.4,3.2l-0.5,0l1.8-3.9l0.4,0l0.8,3.3l1.4-3.2l0.4,0
			L231.6,140.8z"/>
		<path class="st4" d="M223.9,140.3l-0.4,0L222,136l0.5,0l0.4,1.1l2.2,0.2l0.6-1l0.5,0L223.9,140.3z M223,137.6l0.7,2.1l1.1-2
			L223,137.6z"/>
		<path class="st4" d="M220.9,140l-0.5,0l0.3-3.6l-2.3-0.2l0-0.4l2.7,0.2L220.9,140z"/>
	</g>
	<line class="st6" x1="292" y1="158" x2="209.6" y2="151.3"/>
	<line class="st6" x1="293.6" y1="137.6" x2="211.3" y2="130.9"/>
	<g>
		<path class="st4" d="M217.6,40.9l0.3-0.3c0.4,0.4,0.8,0.6,1.3,0.7c0.5,0,0.9-0.2,1-0.6l0,0c0-0.4-0.2-0.6-1-0.8
			c-0.9-0.3-1.3-0.6-1.3-1.3l0,0c0.1-0.6,0.6-1.1,1.4-1c0.6,0,1,0.2,1.4,0.6l-0.3,0.3c-0.3-0.3-0.7-0.5-1.1-0.5
			c-0.5,0-0.9,0.2-0.9,0.6l0,0c0,0.4,0.2,0.6,1,0.9c0.9,0.3,1.3,0.6,1.2,1.2l0,0c-0.1,0.7-0.7,1.1-1.5,1
			C218.5,41.6,218,41.3,217.6,40.9z"/>
		<path class="st4" d="M221.8,37.8l1.5,0.1c0.9,0.1,1.5,0.6,1.4,1.4l0,0c-0.1,0.9-0.8,1.3-1.7,1.2l-1-0.1l-0.1,1.4l-0.5,0
			L221.8,37.8z M223.1,40.1c0.7,0.1,1.1-0.3,1.2-0.8l0,0c0-0.6-0.4-0.9-1-1l-1-0.1l-0.1,1.8L223.1,40.1z"/>
		<path class="st4" d="M225.6,38.1l2.9,0.2l0,0.4l-2.4-0.2l-0.1,1.4l2.2,0.2l0,0.4l-2.2-0.2l-0.1,1.4l2.5,0.2l0,0.4l-2.9-0.2
			L225.6,38.1z"/>
		<path class="st4" d="M229.5,38.4l0.4,0l2.3,3.4l0.3-3.2l0.4,0l-0.3,4l-0.4,0l-2.3-3.5l-0.3,3.3l-0.4,0L229.5,38.4z"/>
		<path class="st4" d="M234,38.7l1.4,0.1c1.3,0.1,2.1,1,2,2.2l0,0c-0.1,1.1-1,1.9-2.3,1.8l-1.4-0.1L234,38.7z M234.4,39.2l-0.3,3.2
			l0.9,0.1c1,0.1,1.7-0.6,1.8-1.4l0,0c0.1-0.9-0.5-1.6-1.5-1.7L234.4,39.2z"/>
		<path class="st4" d="M241.7,39.3l0.4,0l1.5,4.2l-0.5,0l-0.4-1.1l-2.2-0.2l-0.6,1l-0.5,0L241.7,39.3z M242.6,42l-0.7-2.1l-1.1,2
			L242.6,42z"/>
		<path class="st4" d="M246.2,39.7l0.5,0l0.9,3.4l1.4-3.3l0.4,0l0.8,3.4l1.4-3.3l0.5,0l-1.8,3.9l-0.4,0l-0.8-3.3l-1.4,3.2l-0.4,0
			L246.2,39.7z"/>
		<path class="st4" d="M252.8,40.3l2.9,0.2l0,0.4l-2.4-0.2l-0.1,1.4l2.2,0.2l0,0.4l-2.2-0.2l-0.1,1.4l2.5,0.2l0,0.4l-2.9-0.2
			L252.8,40.3z"/>
		<path class="st4" d="M256.7,40.6l2.9,0.2l0,0.4l-2.4-0.2l-0.1,1.4l2.2,0.2l0,0.4l-2.2-0.2l-0.1,1.4l2.5,0.2l0,0.4l-2.9-0.2
			L256.7,40.6z"/>
		<path class="st4" d="M260.5,40.9l0.5,0l-0.2,2.4l2.5-2.2l0.6,0l-1.9,1.6l1.6,2.4l-0.6,0l-1.4-2.1l-0.9,0.8l-0.1,1.1l-0.5,0
			L260.5,40.9z"/>
		<path class="st4" d="M266.4,41.4l0.5,0l-0.3,4l-0.5,0L266.4,41.4z"/>
		<path class="st4" d="M268,41.5l0.4,0l2.3,3.4l0.3-3.2l0.4,0l-0.3,4l-0.4,0l-2.3-3.5l-0.3,3.3l-0.4,0L268,41.5z"/>
		<path class="st4" d="M274.3,42l0.5,0l1.3,2.3l1.6-2.1l0.5,0l-0.3,4l-0.5,0l0.3-3.3l-1.6,2l0,0l-1.3-2.3l-0.3,3.2l-0.4,0L274.3,42z
			"/>
		<path class="st4" d="M279.2,42.4l2.9,0.2l0,0.4l-2.4-0.2l-0.1,1.4l2.2,0.2l0,0.4l-2.2-0.2l-0.1,1.4l2.5,0.2l0,0.4l-2.9-0.2
			L279.2,42.4z"/>
		<path class="st4" d="M286.4,43l-1.6,1.8l1.4,2.2l-0.5,0l-1.1-1.8l-1.4,1.6l-0.5,0l1.7-1.9l-1.3-2.1l0.5,0l1.1,1.8l1.4-1.6
			L286.4,43z"/>
		<path class="st4" d="M287.3,43.1l0.5,0l-0.3,4l-0.5,0L287.3,43.1z"/>
		<path class="st4" d="M288.6,45.2L288.6,45.2c0.1-1.1,1-2,2.2-1.9c0.7,0.1,1.1,0.4,1.5,0.8l-0.3,0.3c-0.3-0.3-0.7-0.6-1.2-0.7
			c-0.9-0.1-1.6,0.6-1.7,1.5l0,0c-0.1,0.9,0.5,1.7,1.4,1.8c0.5,0,0.9-0.1,1.3-0.5l0.3,0.3c-0.5,0.4-0.9,0.6-1.7,0.6
			C289.3,47.3,288.5,46.4,288.6,45.2z"/>
		<path class="st4" d="M292.7,45.5L292.7,45.5c0.1-1.1,1-2,2.2-1.9c1.2,0.1,2,1.1,1.9,2.2l0,0c-0.1,1.1-1,2-2.2,1.9
			C293.4,47.7,292.6,46.6,292.7,45.5z M296.3,45.8L296.3,45.8c0.1-0.9-0.5-1.7-1.4-1.8c-0.9-0.1-1.6,0.6-1.7,1.5l0,0
			c-0.1,0.9,0.5,1.7,1.4,1.8C295.5,47.4,296.2,46.7,296.3,45.8z"/>
		<path class="st4" d="M297.6,45c0.3-0.1,0.4-0.2,0.4-0.5l-0.2,0l0-0.6l0.5,0l0,0.5c0,0.5-0.3,0.7-0.7,0.7L297.6,45z"/>
		<path class="st4" d="M298.8,47.5l0.3-0.3c0.4,0.4,0.8,0.6,1.3,0.7c0.5,0,0.9-0.2,1-0.6l0,0c0-0.4-0.2-0.6-1-0.8
			c-0.9-0.3-1.3-0.6-1.3-1.3l0,0c0.1-0.6,0.6-1,1.4-1c0.6,0,1,0.2,1.4,0.6l-0.3,0.3c-0.3-0.3-0.7-0.5-1.1-0.5
			c-0.5,0-0.9,0.2-0.9,0.6l0,0c0,0.4,0.2,0.6,1,0.9c0.9,0.3,1.3,0.6,1.2,1.2l0,0c-0.1,0.7-0.7,1.1-1.5,1
			C299.7,48.2,299.2,47.9,298.8,47.5z"/>
		<path class="st4" d="M226.4,45.2l0.5,0l1.3,2.3l1.6-2.1l0.5,0l-0.3,4l-0.5,0l0.3-3.3l-1.6,2l0,0l-1.3-2.3l-0.3,3.2l-0.4,0
			L226.4,45.2z"/>
		<path class="st4" d="M231,47.6L231,47.6c0.1-1.1,1-2,2.2-1.9c1.2,0.1,2,1.1,1.9,2.2l0,0c-0.1,1.1-1,2-2.2,1.9
			C231.7,49.7,230.9,48.7,231,47.6z M234.6,47.9L234.6,47.9c0.1-0.9-0.5-1.7-1.4-1.8c-0.9-0.1-1.6,0.6-1.7,1.5l0,0
			c-0.1,0.9,0.5,1.7,1.4,1.8C233.8,49.5,234.6,48.8,234.6,47.9z"/>
		<path class="st4" d="M235.7,49.4l0.3-0.3c0.4,0.4,0.8,0.6,1.3,0.7c0.5,0,0.9-0.2,0.9-0.6l0,0c0-0.4-0.2-0.6-1-0.8
			c-0.9-0.3-1.3-0.6-1.3-1.3l0,0c0.1-0.6,0.6-1,1.4-1c0.6,0,1,0.2,1.4,0.6l-0.3,0.3c-0.3-0.3-0.7-0.5-1.1-0.5
			c-0.5,0-0.9,0.2-0.9,0.6l0,0c0,0.4,0.2,0.6,1,0.9c0.9,0.3,1.3,0.6,1.2,1.2l0,0c-0.1,0.7-0.7,1.1-1.5,1
			C236.6,50.1,236.1,49.9,235.7,49.4z"/>
		<path class="st4" d="M240.8,46.8l-1.3-0.1l0-0.4l3.2,0.3l0,0.4l-1.3-0.1l-0.3,3.6l-0.5,0L240.8,46.8z"/>
		<path class="st4" d="M245.2,46.7l1.7,0.1c0.5,0,0.8,0.2,1,0.4c0.2,0.2,0.2,0.4,0.2,0.7l0,0c0,0.5-0.4,0.8-0.7,0.9
			c0.5,0.2,0.8,0.5,0.8,1l0,0c-0.1,0.7-0.7,1-1.5,1l-1.8-0.1L245.2,46.7z M246.8,49l-1.3-0.1l-0.1,1.4l1.3,0.1c0.6,0,1-0.2,1-0.6
			l0,0C247.8,49.4,247.5,49.1,246.8,49z M247.7,48c0-0.4-0.3-0.7-0.8-0.7l-1.2-0.1l-0.1,1.4l1.2,0.1C247.3,48.7,247.7,48.5,247.7,48
			L247.7,48z"/>
		<path class="st4" d="M249.4,47.1l1.7,0.1c0.5,0,0.9,0.2,1.1,0.5c0.2,0.2,0.3,0.5,0.2,0.8l0,0c-0.1,0.7-0.5,1-1.2,1.1l1.1,1.7
			l-0.6,0l-1-1.7l-1.1-0.1l-0.1,1.6l-0.5,0L249.4,47.1z M250.9,49.2c0.6,0,1.1-0.2,1.1-0.7l0,0c0-0.5-0.3-0.8-1-0.9l-1.2-0.1
			l-0.1,1.6L250.9,49.2z"/>
		<path class="st4" d="M253.3,49.7l0.2-2.3l0.5,0l-0.2,2.3c-0.1,0.9,0.4,1.4,1.1,1.5c0.7,0.1,1.2-0.3,1.3-1.2l0.2-2.3l0.5,0
			l-0.2,2.3c-0.1,1.2-0.8,1.7-1.8,1.6C253.8,51.5,253.2,50.9,253.3,49.7z"/>
		<path class="st4" d="M258.9,48.2l-1.3-0.1l0-0.4l3.2,0.3l0,0.4l-1.3-0.1l-0.3,3.6l-0.5,0L258.9,48.2z"/>
		<path class="st4" d="M262.6,48.1l0.4,0l1.5,4.2l-0.5,0l-0.4-1.1l-2.2-0.2l-0.6,1l-0.5,0L262.6,48.1z M263.5,50.8l-0.7-2.1l-1.1,2
			L263.5,50.8z"/>
		<path class="st4" d="M265.6,48.4l0.5,0l-0.3,3.6l2.3,0.2l0,0.4l-2.7-0.2L265.6,48.4z"/>
		<path class="st4" d="M270.9,48.8l1.5,0.1c0.9,0.1,1.5,0.6,1.4,1.4l0,0c-0.1,0.9-0.8,1.3-1.7,1.2l-1-0.1l-0.1,1.4l-0.5,0
			L270.9,48.8z M272.1,51.1c0.7,0.1,1.1-0.3,1.2-0.8l0,0c0-0.6-0.4-0.9-1-1l-1-0.1l-0.1,1.8L272.1,51.1z"/>
		<path class="st4" d="M274.7,49.1l1.7,0.1c0.5,0,0.9,0.2,1.1,0.5c0.2,0.2,0.3,0.5,0.2,0.8l0,0c-0.1,0.7-0.5,1-1.2,1.1l1.1,1.7
			l-0.6,0l-1-1.7l-1.1-0.1l-0.1,1.6l-0.5,0L274.7,49.1z M276.2,51.3c0.6,0,1.1-0.2,1.1-0.7l0,0c0-0.5-0.3-0.8-1-0.9l-1.2-0.1
			l-0.1,1.6L276.2,51.3z"/>
		<path class="st4" d="M278.9,49.4l0.5,0l-0.3,4l-0.5,0L278.9,49.4z"/>
		<path class="st4" d="M280,53l0.3-0.3c0.4,0.4,0.8,0.6,1.3,0.7c0.5,0,0.9-0.2,0.9-0.6l0,0c0-0.4-0.2-0.6-1-0.8
			c-0.9-0.3-1.3-0.6-1.3-1.3l0,0c0.1-0.6,0.6-1,1.4-1c0.6,0,1,0.2,1.4,0.6l-0.3,0.3c-0.3-0.3-0.7-0.5-1.1-0.5
			c-0.5,0-0.9,0.2-0.9,0.6l0,0c0,0.4,0.2,0.6,1,0.9c0.9,0.3,1.3,0.6,1.2,1.2l0,0c-0.1,0.7-0.7,1.1-1.5,1
			C280.9,53.7,280.4,53.5,280,53z"/>
		<path class="st4" d="M283.9,51.9L283.9,51.9c0.1-1.1,1-2,2.2-1.9s2,1.1,1.9,2.2l0,0c-0.1,1.1-1,2-2.2,1.9
			C284.5,54,283.8,53,283.9,51.9z M287.5,52.2L287.5,52.2c0.1-0.9-0.5-1.7-1.4-1.8c-0.9-0.1-1.6,0.6-1.7,1.5l0,0
			c-0.1,0.9,0.5,1.7,1.4,1.8C286.7,53.8,287.4,53.1,287.5,52.2z"/>
		<path class="st4" d="M289.1,50.3l0.4,0l2.3,3.4l0.3-3.2l0.4,0l-0.3,4l-0.4,0l-2.3-3.5l-0.3,3.3l-0.4,0L289.1,50.3z"/>
	</g>
	<line class="st6" x1="219.3" y1="32.4" x2="301.6" y2="39.1"/>
	<line class="st6" x1="217.6" y1="52.8" x2="300" y2="59.5"/>
</g>
<g>
	
		<image style="overflow:visible;opacity:0.75;" width="134" height="192" xlink:href="F6B6D74EDA309B30.png"  transform="matrix(1 0 0 1 98 -0.5)">
	</image>
	<g>
		<path class="st0" d="M211.8,164.4c0,3.5-2.9,6.4-6.4,6.4h-90.7c-3.5,0-6.4-2.9-6.4-6.4V16.5c0-3.5,2.9-6.4,6.4-6.4h90.7
			c3.5,0,6.4,2.9,6.4,6.4V164.4z"/>
		<path class="st1" d="M177.1,99.1c1.5-2.7,2.4-5.7,2.4-9c0-10-8.1-18-18-18"/>
		<path class="st2" d="M145.8,99.1c3.1,5.4,9,9,15.6,9c6.7,0,12.5-3.6,15.6-9"/>
		<path class="st2" d="M161.5,72c-10,0-18.1,8.1-18.1,18c0,3.3,0.9,6.4,2.4,9"/>
		<line class="st3" x1="161.5" y1="90.1" x2="138.5" y2="103.3"/>
		<line class="st3" x1="161.5" y1="90.1" x2="184.4" y2="103.3"/>
		<line class="st3" x1="161.5" y1="90.1" x2="161.5" y2="63.4"/>
		<g>
			<path class="st4" d="M155.4,98.6h1.1c0.7,0,1.1,0.3,1.1,0.9v0c0,0.6-0.5,0.9-1.1,0.9h-0.7v1h-0.3V98.6z M156.4,100.2
				c0.5,0,0.8-0.3,0.8-0.6v0c0-0.4-0.3-0.6-0.8-0.6h-0.7v1.3H156.4z"/>
			<path class="st4" d="M158,100.1L158,100.1c0-0.8,0.6-1.5,1.5-1.5s1.5,0.7,1.5,1.5v0c0,0.8-0.6,1.5-1.5,1.5S158,100.9,158,100.1z
				 M160.6,100.1L160.6,100.1c0-0.7-0.5-1.2-1.1-1.2s-1.1,0.5-1.1,1.2v0c0,0.7,0.5,1.2,1.1,1.2S160.6,100.8,160.6,100.1z"/>
			<path class="st4" d="M161.7,98.6h0.3v2.9h-0.3V98.6z"/>
			<path class="st4" d="M162.9,98.6h0.3l1.8,2.3v-2.3h0.3v2.9h-0.3l-1.9-2.4v2.4h-0.3V98.6z"/>
			<path class="st4" d="M166.9,98.9h-1v-0.3h2.3v0.3h-1v2.6h-0.3V98.9z"/>
		</g>
		<g>
			<path class="st5" d="M158.4,81.6l3.8-1.8h0.4v13c0,0.9,0,1.4,0.1,1.6s0.2,0.4,0.5,0.5c0.2,0.1,0.7,0.2,1.4,0.2v0.4h-5.8v-0.4
				c0.7,0,1.2-0.1,1.4-0.2s0.4-0.3,0.4-0.4c0.1-0.2,0.1-0.7,0.1-1.7v-8.3c0-1.1,0-1.8-0.1-2.2c-0.1-0.2-0.1-0.4-0.3-0.5
				c-0.1-0.1-0.3-0.2-0.5-0.2c-0.3,0-0.7,0.1-1.2,0.4L158.4,81.6z"/>
		</g>
		<g>
			<path class="st4" d="M190,144.5h-1.7c-0.5,0-0.8-0.1-1.1-0.4c-0.2-0.2-0.3-0.4-0.3-0.6v0c0-0.5,0.3-0.8,0.6-0.9
				c-0.5-0.1-0.9-0.4-0.9-1v0c0-0.7,0.6-1.1,1.5-1.1h1.8V144.5z M188.3,142.3h1.3v-1.4h-1.4c-0.6,0-1,0.3-1,0.7v0
				C187.2,142,187.6,142.3,188.3,142.3z M187.4,143.4c0,0.4,0.3,0.7,0.9,0.7h1.2v-1.4h-1.2C187.8,142.7,187.4,142.9,187.4,143.4
				L187.4,143.4z"/>
			<path class="st4" d="M185.8,144.5h-2.9V144h2.5v-1.4h-2.2v-0.4h2.2v-1.4h-2.5v-0.4h2.9V144.5z"/>
			<path class="st4" d="M178.8,144.5h-0.4l-1.8-4.1h0.5l0.5,1.1h2.2l0.5-1.1h0.5L178.8,144.5z M177.7,141.9l0.9,2l0.9-2H177.7z"/>
			<path class="st4" d="M174,144.5h-0.5v-1.8h-2.3v1.8h-0.5v-4h0.5v1.8h2.3v-1.8h0.5V144.5z"/>
			<path class="st4" d="M169.7,142.1v2.3h-0.5v-2.3c0-0.9-0.5-1.4-1.2-1.4c-0.7,0-1.2,0.4-1.2,1.3v2.3h-0.5v-2.3
				c0-1.2,0.7-1.8,1.7-1.8C169,140.4,169.7,141,169.7,142.1z"/>
			<path class="st4" d="M165.4,142.4L165.4,142.4c0,1.1-0.8,2.1-2,2.1c-0.7,0-1.1-0.2-1.5-0.5l0.3-0.3c0.3,0.3,0.7,0.5,1.2,0.5
				c0.9,0,1.5-0.8,1.5-1.7v0c0-1-0.6-1.7-1.6-1.7c-0.5,0-0.9,0.2-1.2,0.4v1h1.2v0.4h-1.7V141c0.4-0.3,0.9-0.6,1.6-0.6
				C164.6,140.4,165.4,141.3,165.4,142.4z"/>
			<path class="st4" d="M160.7,144.5h-2.9V144h2.5v-1.4h-2.2v-0.4h2.2v-1.4h-2.5v-0.4h2.9V144.5z"/>
			<path class="st4" d="M155.2,144.5h-2.9V144h2.4v-1.4h-2.2v-0.4h2.2v-1.8h0.5V144.5z"/>
			<path class="st4" d="M150.3,144.5h-0.4l-1.8-4.1h0.5l0.5,1.1h2.2l0.5-1.1h0.5L150.3,144.5z M149.2,141.9l0.9,2l0.9-2H149.2z"/>
			<path class="st4" d="M147.3,144.5h-0.4l-2.5-3.2v3.2h-0.4v-4h0.4l2.6,3.3v-3.3h0.4V144.5z"/>
			<path class="st4" d="M141.2,142.4L141.2,142.4c0,1.1-0.8,2.1-2.1,2.1c-1.2,0-2-1-2-2.1v0c0-1.1,0.8-2.1,2.1-2.1
				C140.4,140.4,141.2,141.3,141.2,142.4z M137.6,142.4L137.6,142.4c0,0.9,0.7,1.7,1.6,1.7s1.6-0.7,1.6-1.7v0c0-0.9-0.7-1.7-1.6-1.7
				S137.6,141.5,137.6,142.4z"/>
			<path class="st4" d="M136.1,144.5h-2.9V144h2.4v-1.4h-2.2v-0.4h2.2v-1.8h0.5V144.5z"/>
			<path class="st4" d="M180.6,137.4h-0.4l-2.5-3.2v3.2h-0.4v-4h0.4l2.6,3.3v-3.3h0.4V137.4z"/>
			<path class="st4" d="M176,137.4h-0.5v-4h0.5V137.4z"/>
			<path class="st4" d="M174.6,135.4L174.6,135.4c0,1.2-0.9,2.1-2,2.1c-0.7,0-1.2-0.3-1.6-0.6l0.3-0.3c0.3,0.3,0.7,0.6,1.3,0.6
				c0.9,0,1.6-0.7,1.6-1.7v0c0-0.9-0.7-1.7-1.6-1.7c-0.6,0-0.9,0.2-1.3,0.6l-0.3-0.3c0.4-0.4,0.9-0.7,1.6-0.7
				C173.7,133.3,174.6,134.2,174.6,135.4z"/>
			<path class="st4" d="M170.1,137.4h-0.5V135l-2.3,2.4h-0.6l1.7-1.8l-1.8-2.3h0.6l1.5,2l0.9-0.9v-1.1h0.5V137.4z"/>
			<path class="st4" d="M166,137.4h-2.9V137h2.5v-1.4h-2.2v-0.4h2.2v-1.4h-2.5v-0.4h2.9V137.4z"/>
			<path class="st4" d="M162.1,137.4h-0.5v-3.6h-2.3v-0.4h2.7V137.4z"/>
			<path class="st4" d="M158.6,137.4h-1.7c-0.5,0-0.8-0.1-1.1-0.4c-0.2-0.2-0.3-0.4-0.3-0.6v0c0-0.5,0.3-0.8,0.6-0.9
				c-0.5-0.1-0.9-0.4-0.9-1v0c0-0.7,0.6-1.1,1.5-1.1h1.8V137.4z M156.9,135.2h1.3v-1.4h-1.4c-0.6,0-1,0.3-1,0.7v0
				C155.8,135,156.2,135.2,156.9,135.2z M156,136.4c0,0.4,0.3,0.7,0.9,0.7h1.2v-1.4h-1.2C156.4,135.6,156,135.9,156,136.4L156,136.4
				z"/>
			<path class="st4" d="M152.9,137.4h-0.4l-1.8-4.1h0.5l0.5,1.1h2.2l0.5-1.1h0.5L152.9,137.4z M151.8,134.9l0.9,2l0.9-2H151.8z"/>
			<path class="st4" d="M150.3,135.4L150.3,135.4c0,1.2-0.9,2.1-2,2.1c-0.7,0-1.2-0.3-1.6-0.6l0.3-0.3c0.3,0.3,0.7,0.6,1.3,0.6
				c0.9,0,1.6-0.7,1.6-1.7v0c0-0.9-0.7-1.7-1.6-1.7c-0.6,0-0.9,0.2-1.3,0.6l-0.3-0.3c0.4-0.4,0.9-0.7,1.6-0.7
				C149.4,133.3,150.3,134.2,150.3,135.4z"/>
			<path class="st4" d="M145.9,137.4h-0.5V135l-2.3,2.4h-0.6l1.7-1.8l-1.8-2.3h0.6l1.5,2l0.9-0.9v-1.1h0.5V137.4z"/>
		</g>
		<line class="st6" x1="203" y1="149.5" x2="120.4" y2="149.5"/>
		<line class="st6" x1="203" y1="129.1" x2="120.4" y2="129.1"/>
		<g>
			<path class="st4" d="M133.4,35.4h1.7c0.5,0,0.8,0.1,1.1,0.4c0.2,0.2,0.3,0.4,0.3,0.6v0c0,0.5-0.3,0.8-0.6,0.9
				c0.5,0.1,0.9,0.4,0.9,1v0c0,0.7-0.6,1.1-1.5,1.1h-1.8V35.4z M135.9,36.4c0-0.4-0.3-0.7-0.9-0.7h-1.2v1.4h1.2
				C135.6,37.2,135.9,36.9,135.9,36.4L135.9,36.4z M135.1,37.6h-1.3V39h1.4c0.6,0,1-0.3,1-0.7v0C136.2,37.8,135.8,37.6,135.1,37.6z"
				/>
			<path class="st4" d="M137.5,35.4h2.9v0.4H138v1.4h2.2v0.4H138V39h2.5v0.4h-2.9V35.4z"/>
			<path class="st4" d="M144.6,35.3h0.4l1.8,4.1h-0.5l-0.5-1.1h-2.2l-0.5,1.1h-0.5L144.6,35.3z M145.7,37.9l-0.9-2l-0.9,2H145.7z"/>
			<path class="st4" d="M149.4,35.4h0.5v1.8h2.3v-1.8h0.5v4h-0.5v-1.8h-2.3v1.8h-0.5V35.4z"/>
			<path class="st4" d="M153.7,37.7v-2.3h0.5v2.3c0,0.9,0.5,1.4,1.2,1.4c0.7,0,1.2-0.4,1.2-1.3v-2.3h0.5v2.3c0,1.2-0.7,1.8-1.7,1.8
				C154.4,39.5,153.7,38.8,153.7,37.7z"/>
			<path class="st4" d="M158,37.4L158,37.4c0-1.1,0.8-2.1,2-2.1c0.7,0,1.1,0.2,1.5,0.5l-0.3,0.3c-0.3-0.3-0.7-0.5-1.2-0.5
				c-0.9,0-1.5,0.8-1.5,1.7v0c0,1,0.6,1.7,1.6,1.7c0.5,0,0.9-0.2,1.2-0.4v-1H160v-0.4h1.7v1.6c-0.4,0.3-0.9,0.6-1.6,0.6
				C158.7,39.5,158,38.5,158,37.4z"/>
			<path class="st4" d="M162.6,35.4h2.9v0.4h-2.5v1.4h2.2v0.4h-2.2V39h2.5v0.4h-2.9V35.4z"/>
			<path class="st4" d="M168.2,35.4h2.9v0.4h-2.4v1.4h2.2v0.4h-2.2v1.8h-0.5V35.4z"/>
			<path class="st4" d="M173,35.3h0.4l1.8,4.1h-0.5l-0.5-1.1h-2.2l-0.5,1.1h-0.5L173,35.3z M174.2,37.9l-0.9-2l-0.9,2H174.2z"/>
			<path class="st4" d="M176.1,35.4h0.4l2.5,3.2v-3.2h0.4v4h-0.4l-2.6-3.3v3.3h-0.4V35.4z"/>
			<path class="st4" d="M182.2,37.4L182.2,37.4c0-1.1,0.8-2.1,2.1-2.1c1.2,0,2,1,2,2.1v0c0,1.1-0.8,2.1-2.1,2.1
				C183,39.5,182.2,38.5,182.2,37.4z M185.8,37.4L185.8,37.4c0-0.9-0.7-1.7-1.6-1.7c-0.9,0-1.6,0.7-1.6,1.7v0c0,0.9,0.7,1.7,1.6,1.7
				C185.2,39,185.8,38.3,185.8,37.4z"/>
			<path class="st4" d="M187.3,35.4h2.9v0.4h-2.4v1.4h2.2v0.4h-2.2v1.8h-0.5V35.4z"/>
			<path class="st4" d="M139.5,45.8l0.3-0.3c0.2,0.4,0.5,0.6,0.9,0.6c0.5,0,0.8-0.3,0.8-1v-2.7h0.5v2.7c0,0.5-0.1,0.8-0.4,1.1
				c-0.2,0.2-0.5,0.3-0.9,0.3C140.1,46.5,139.7,46.2,139.5,45.8z"/>
			<path class="st4" d="M143,44.7v-2.3h0.5v2.3c0,0.9,0.5,1.4,1.2,1.4c0.7,0,1.2-0.4,1.2-1.3v-2.3h0.5v2.3c0,1.2-0.7,1.8-1.7,1.8
				C143.7,46.5,143,45.9,143,44.7z"/>
			<path class="st4" d="M147.1,45.8l0.3-0.3c0.4,0.4,0.8,0.6,1.4,0.6c0.5,0,0.9-0.3,0.9-0.7v0c0-0.4-0.2-0.6-1-0.8
				c-0.9-0.2-1.4-0.5-1.4-1.2v0c0-0.6,0.6-1.1,1.3-1.1c0.6,0,1,0.2,1.4,0.5l-0.3,0.4c-0.4-0.3-0.7-0.4-1.2-0.4
				c-0.5,0-0.9,0.3-0.9,0.6v0c0,0.4,0.2,0.6,1.1,0.8c0.9,0.2,1.3,0.5,1.3,1.1v0c0,0.7-0.6,1.1-1.4,1.1
				C148.2,46.5,147.6,46.3,147.1,45.8z"/>
			<path class="st4" d="M152.1,42.8h-1.4v-0.4h3.2v0.4h-1.4v3.6h-0.5V42.8z"/>
			<path class="st4" d="M154.8,42.4h0.5v4h-0.5V42.4z"/>
			<path class="st4" d="M156.4,42.4h0.4l2.5,3.2v-3.2h0.4v4h-0.4l-2.6-3.3v3.3h-0.4V42.4z"/>
			<path class="st4" d="M162.7,42.4h1.7c0.5,0,0.8,0.1,1.1,0.4c0.2,0.2,0.3,0.4,0.3,0.6v0c0,0.5-0.3,0.8-0.6,0.9
				c0.5,0.1,0.9,0.4,0.9,1v0c0,0.7-0.6,1.1-1.5,1.1h-1.8V42.4z M165.3,43.5c0-0.4-0.3-0.7-0.9-0.7h-1.2v1.4h1.2
				C164.9,44.2,165.3,43.9,165.3,43.5L165.3,43.5z M164.4,44.6h-1.3V46h1.4c0.6,0,1-0.3,1-0.7v0C165.5,44.8,165.1,44.6,164.4,44.6z"
				/>
			<path class="st4" d="M166.9,42.4h0.5v4h-0.5V42.4z"/>
			<path class="st4" d="M168.5,42.4h2.9v0.4H169v1.4h2.2v0.4H169V46h2.5v0.4h-2.9V42.4z"/>
			<path class="st4" d="M172.4,42.4h1.7c0.5,0,0.8,0.1,1.1,0.4c0.2,0.2,0.3,0.4,0.3,0.6v0c0,0.5-0.3,0.8-0.6,0.9
				c0.5,0.1,0.9,0.4,0.9,1v0c0,0.7-0.6,1.1-1.5,1.1h-1.8V42.4z M174.9,43.5c0-0.4-0.3-0.7-0.9-0.7h-1.2v1.4h1.2
				C174.6,44.2,174.9,43.9,174.9,43.5L174.9,43.5z M174.1,44.6h-1.3V46h1.4c0.6,0,1-0.3,1-0.7v0C175.2,44.8,174.8,44.6,174.1,44.6z"
				/>
			<path class="st4" d="M176.5,42.4h2.9v0.4H177v1.4h2.2v0.4H177V46h2.5v0.4h-2.9V42.4z"/>
			<path class="st4" d="M180.4,42.4h1.7c0.5,0,0.9,0.1,1.1,0.4c0.2,0.2,0.3,0.5,0.3,0.8v0c0,0.7-0.5,1.1-1.1,1.2l1.2,1.6h-0.6
				l-1.2-1.6h-1.2v1.6h-0.5V42.4z M182.1,44.4c0.6,0,1-0.3,1-0.8v0c0-0.5-0.4-0.8-1-0.8h-1.2v1.6H182.1z"/>
		</g>
		<line class="st6" x1="120.4" y1="30.3" x2="203" y2="30.3"/>
		<line class="st6" x1="120.4" y1="50.7" x2="203" y2="50.7"/>
	</g>
</g>
<path class="st7" d="M179.8,28.5c-4.3-0.5-8.6-0.9-12.9-1.4l-6.4-0.6L154,26c-4.3-0.3-8.6-0.6-12.9-0.8c-4.3-0.2-8.6-0.4-12.9-0.5
	l1.6-2.1c0.4,1.1,0.2,2.3-0.1,3.2c-0.3,0.9-0.8,1.6-1.2,2.3c-0.9,1.3-1.9,2.5-2.7,3.6c-0.8,1.1-1.5,2.2-1.7,3.3
	c-0.3,1.4-0.3,2.5-0.1,3.7c0.4,2.3,2.1,4.3,4.3,6c2.2,1.7,4.7,3.1,7.3,4.5c2.5,1.3,5.2,2.4,7.9,3.3c2.7,0.9,5.5,1.6,8.3,2.2
	c5.7,1.1,11.5,1.4,17.3,1.5c2.9,0,6,0.1,8.9,0.2c2.9,0.1,5.8,0.1,8.7-0.1c2.9-0.2,5.7-0.5,8.4-1.3l2-0.6c0.7-0.3,1.3-0.5,2-0.7
	c0.6-0.3,1.3-0.6,1.9-0.9c0.7-0.3,1.3-0.7,1.9-1c2.4-1.4,4.7-3.2,5.9-5.5c0.6-1.2,0.9-2.5,0.8-3.8c-0.1-1.3-0.6-2.6-1.3-3.8
	c-1.5-2.4-3.8-4.3-6.3-5.7c-2.5-1.4-5.3-2.5-8.2-3.1c2.9,0.4,5.9,1.1,8.6,2.4c2.7,1.3,5.3,3,7.2,5.6c0.9,1.3,1.6,2.8,1.8,4.4
	c0.2,1.6-0.1,3.4-0.7,4.9c-0.7,1.5-1.7,2.8-2.8,3.9c-1.1,1.1-2.3,2.1-3.7,2.9c-0.7,0.5-1.3,0.8-2,1.2c-0.7,0.4-1.4,0.7-2.1,1
	c-0.7,0.3-1.4,0.6-2.1,0.9c-0.7,0.3-1.5,0.5-2.2,0.8c-3,0.9-6,1.4-9,1.7c-3,0.3-6,0.3-9,0.3c-3,0-5.9,0-8.9,0c-6,0.1-12-0.3-18-1.4
	c-3-0.5-6-1.3-8.9-2.2c-2.9-1-5.7-2.2-8.5-3.6c-2.7-1.4-5.3-3-7.8-4.9c-1.2-1-2.5-2.1-3.5-3.5c-1-1.4-1.8-3.1-2.1-4.8
	c-0.3-1.7-0.1-3.6,0.2-5.1c0.5-1.9,1.5-3.3,2.4-4.5c1-1.2,1.9-2.3,2.7-3.4c0.4-0.5,0.7-1.1,0.9-1.5c0.2-0.5,0.2-0.8,0.1-1.1
	l-0.5-2.2l2.1,0.1c4.3,0.3,8.6,0.6,13,1c4.3,0.4,8.6,1,12.9,1.5c4.3,0.6,8.6,1.3,12.8,2l6.4,1.2L179.8,28.5z"/>
<path class="st7" d="M85.1,128.3c0,0-0.2,0.1-0.5,0.2c-0.4,0.1-0.9,0.4-1.6,0.5c-1.4,0.4-3.6,0.6-6.4,0.4c-2.8-0.1-6.1-0.6-9.9-1.3
	c-1.9-0.3-3.9-0.7-6-1c-1-0.2-2.1-0.3-3.2-0.4c-1.1-0.1-2.2-0.1-3.4-0.2c-4.7-0.2-9.8-0.4-15.1-0.3c-5.3,0.1-11,0.4-16.5,1.6
	c-1.4,0.3-2.7,0.7-4,1.2c-1.3,0.5-2.6,1.1-3.6,1.8c-1,0.7-1.9,1.6-2.3,2.6c-0.1,0.1-0.1,0.2-0.2,0.4l-0.1,0.4l-0.1,0.2l0,0.1l0,0
	c0,0,0-0.2,0-0.1L12,135c0,0.2,0,0.4-0.1,0.6c0,0.1,0,0.2,0,0.3c0,0.1,0,0.2,0,0.4l0.1,0.4c0.5,2.3,2.5,4.4,4.9,6.1
	c2.4,1.7,5,3.2,7.8,4.4c5.6,2.6,11.5,4.5,17.4,6.2c1.5,0.4,3,0.8,4.4,1.2c0.7,0.2,1.5,0.4,2.2,0.6c0.7,0.2,1.4,0.4,2.2,0.5
	c2.9,0.7,5.8,1.3,8.7,1.7c5.7,0.9,11.3,1.4,16.6,1.3c5.3-0.1,10.3-0.6,14.6-2c2.1-0.7,4.1-1.7,5.7-2.9c1.6-1.2,3-2.7,3.8-4.2
	c0.9-1.5,1.2-3.2,1-4.8c-0.2-1.5-0.8-2.9-1.4-4.1c-1.3-2.3-2.8-4-3.7-5.1c-0.5-0.6-0.9-1-1.1-1.2c-0.3-0.3-0.4-0.4-0.4-0.4
	s0.1,0.1,0.4,0.4c0.3,0.3,0.7,0.6,1.3,1.1c1.1,1,2.7,2.5,4.3,4.8c0.8,1.2,1.5,2.6,1.9,4.3c0.4,1.7,0.1,3.8-0.7,5.6
	c-0.9,1.9-2.2,3.5-4,5c-1.7,1.5-3.8,2.6-6.1,3.5c-4.6,1.8-9.8,2.6-15.3,2.9c-5.5,0.3-11.3,0-17.2-0.8c-3-0.4-6-0.9-9-1.5
	c-3.1-0.7-6-1.5-9-2.3c-6-1.7-12.1-3.6-18-6.2c-2.9-1.4-5.8-2.9-8.5-4.9c-1.3-1-2.6-2.1-3.8-3.5c-1.1-1.4-2.1-3-2.5-4.9l-0.1-0.7
	c0-0.3,0-0.5-0.1-0.8l0-0.8l0.1-0.6l0.1-0.6c0,0.1,0-0.2,0-0.2l0-0.1l0-0.2l0.1-0.4l0.2-0.7c0.1-0.2,0.2-0.4,0.3-0.7
	c0.8-1.8,2.2-3.1,3.7-4.1c1.4-1,3-1.6,4.5-2.1c1.5-0.5,3-0.9,4.5-1.2c6-1.2,11.8-1.2,17.3-1.1c5.5,0.1,10.6,0.5,15.3,1
	c1.2,0.1,2.3,0.2,3.5,0.4c1.2,0.2,2.3,0.4,3.3,0.6c2.1,0.5,4.1,1,5.9,1.4c3.7,0.9,6.9,1.6,9.6,2c2.7,0.4,4.9,0.4,6.3,0.1
	c0.7-0.1,1.3-0.3,1.6-0.4C84.9,128.3,85.1,128.3,85.1,128.3z"/>
<path class="st7" d="M127.8,21c0,0-0.7-0.4-1.9-1.1c-0.3-0.2-0.7-0.4-1-0.6c-0.4-0.2-0.8-0.4-1.3-0.6c-0.5-0.2-1-0.5-1.5-0.7
	c-0.5-0.3-1.1-0.5-1.7-0.7c-0.6-0.2-1.3-0.5-2-0.7c-0.7-0.3-1.4-0.6-2.2-0.8c-0.8-0.2-1.6-0.5-2.4-0.7c-0.8-0.3-1.7-0.5-2.6-0.7
	c-0.9-0.2-1.8-0.5-2.8-0.7c-1-0.2-2-0.4-3-0.7c-2-0.5-4.2-0.8-6.5-1.2c-4.5-0.7-9.5-1.4-14.7-1.7c-5.2-0.4-10.8-0.7-16.5-0.4
	c-1.4,0.1-2.9,0.3-4.3,0.4c-1.4,0.3-2.9,0.5-4.3,0.8c-2.8,0.7-5.7,1.9-8.2,3.4c-2.6,1.5-5,3.4-7.2,5.5c-2.1,2.2-4.1,4.5-5.8,7.1
	C34.5,31.7,32,37.3,30,43c-2,5.6-3.4,11.4-4.2,17c-0.4,2.8-0.8,5.6-1,8.3c-0.1,0.7-0.1,1.4-0.2,2l-0.1,1l0,1c0,0.7-0.1,1.4-0.1,2
	c0,0.6,0,1.3,0,1.9c0,1.3,0.2,2.6,0.2,3.8c0.2,1.3,0.3,2.5,0.4,3.7c0.3,2.4,0.7,4.8,1.2,7c0.9,4.5,2,8.5,3.2,12.1
	c1.2,3.5,2.4,6.5,3.5,9c1.2,2.4,2.2,4.2,3,5.5c0.8,1.2,1.2,1.8,1.2,1.8l-0.3,0.3c0,0-0.5-0.6-1.6-1.6c-1-1.1-2.3-2.8-3.8-5.1
	c-1.4-2.3-3.1-5.3-4.6-8.8c-1.5-3.5-3-7.6-4.2-12.2c-1.2-4.6-2.2-9.6-2.6-15.2c0-0.7-0.1-1.4-0.1-2.1c0-0.7,0-1.4,0-2.1l0-1.1
	l0.1-1.1c0-0.7,0.1-1.4,0.2-2.1c0.3-2.9,0.6-5.8,1.2-8.7c1.1-5.8,2.7-11.8,5-17.6c2.3-5.8,5.4-11.4,9.4-16.4c2-2.5,4.1-4.8,6.5-6.9
	c2.3-2.1,4.9-3.9,7.6-5.5c5.4-3.2,11.4-4.8,17.2-5.7c5.8-0.9,11.6-1.2,17-1c5.4,0.2,10.5,1,15.1,1.9c2.3,0.5,4.5,1,6.6,1.6
	c1,0.3,2.1,0.5,3,0.9c1,0.3,1.9,0.7,2.8,1c3.6,1.3,6.7,2.7,9.1,4c0.6,0.3,1.2,0.7,1.7,1c0.5,0.3,1,0.7,1.5,1
	c0.4,0.3,0.9,0.6,1.2,0.8c0.3,0.3,0.7,0.6,0.9,0.8c1.1,1,1.7,1.5,1.7,1.5L127.8,21z"/>
</svg>
