<?xml version="1.0" encoding="utf-8"?>
<!-- Generator: Adobe Illustrator 19.1.0, SVG Export Plug-In . SVG Version: 6.00 Build 0)  -->
<svg version="1.1" xmlns="http://www.w3.org/2000/svg" xmlns:xlink="http://www.w3.org/1999/xlink" x="0px" y="0px"
	 viewBox="0 0 100 100" style="enable-background:new 0 0 100 100;" xml:space="preserve">
<style type="text/css">
	.st0{fill:#8CC63E;}
	.st1{fill:none;stroke:#FFFFFF;stroke-width:3;stroke-miterlimit:10;}
	.st2{fill:#FFFFFF;}
</style>
<g id="circle">
	<circle class="st0" cx="50.3" cy="49.7" r="46.6">
		<animate
			 attributeType="cx"
			 from="46.6"
			 to="55"
			 dur="1s"
			 fill="freeze" 
			 repeatCount="indefenite" />		
	</circle>
</g>
<g id="mouse">
	<g>
		<path class="st1" d="M57.6,82.4H42.4c-6.6,0-12-5.4-12-12V29.2c0-6.6,5.4-12,12-12h15.1c6.6,0,12,5.4,12,12v41.1
			C69.6,77,64.2,82.4,57.6,82.4z"/>
		<path class="st1" d="M69.9,41.6c-3.2-1.1-36.4-1-39.1,0"/>
	</g>
</g>
<g id="arrow">
	<polygon class="st2" points="50,23 50,30.3 46.7,26.8 45.9,27.6 50.5,32.5 55.1,27.6 54.3,26.8 51,30.3 51,23 	">

		<animateTransform id="polygionid"
			 attributeName="transform"
			 attributeType="XML"
			 type="translate"
			 dur="1s"
			 values="0,4;0,-2;0,4"
			 repeatCount="indefinite" />
	</polygon>
</g>
</svg>
