<?xml version="1.0" encoding="utf-8"?>
<!-- Generator: Adobe Illustrator 19.1.0, SVG Export Plug-In . SVG Version: 6.00 Build 0)  -->
<svg version="1.1" id="Calque_1" xmlns="http://www.w3.org/2000/svg" xmlns:xlink="http://www.w3.org/1999/xlink" x="0px" y="0px"
	 viewBox="0 0 100 100" style="enable-background:new 0 0 100 100;" xml:space="preserve">
<style type="text/css">
	.st0{fill:none;stroke:#BBDC00;stroke-width:4.6144;stroke-miterlimit:10;}
	.st1{fill:none;stroke:#FFFFFF;stroke-width:2;stroke-miterlimit:10;}
	.st2{fill:#BBDC00;}
</style>
<path class="st0" d="M86.2,71.4c3.6-6.2,5.6-13.4,5.6-21.1C91.9,27,73,8.1,49.7,8.1"/>
<path class="st0" d="M13.1,71.4C20.4,84.1,34,92.5,49.7,92.5c15.6,0,29.3-8.5,36.6-21.1"/>
<path class="st0" d="M49.7,8.1C26.4,8.1,7.5,27,7.5,50.3c0,7.7,2.1,14.9,5.6,21.1"/>
<line class="st1" x1="49.4" y1="54.4" x2="6.3" y2="79.3"/>
<line class="st1" x1="49.4" y1="54.4" x2="92.4" y2="79.3"/>
<line class="st1" x1="49.4" y1="54.4" x2="49.4" y2="4.3"/>
<g>
	<path class="st2" d="M53.8,44.5c1.1-1.5,1.6-3,1.6-4.5s-0.6-2.8-1.7-3.9c-1.2-1.1-2.6-1.6-4.4-1.6c-3.1,0-5.7,1.6-7.8,4.8l-5.2-3
		c1.7-2.5,3.5-4.4,5.5-5.7c2-1.3,4.6-1.9,7.8-1.9s6,1,8.4,3c2.4,2,3.6,4.8,3.6,8.3c0,2-0.5,3.8-1.5,5.6s-2.9,4.1-5.6,6.9l-8.9,9.1
		h17.3v6.2H36.8v-5.5l11.6-11.6C50.9,48,52.8,46,53.8,44.5z"/>
</g>
</svg>
