<?xml version="1.0" encoding="utf-8"?>
<!-- Generator: Adobe Illustrator 19.1.0, SVG Export Plug-In . SVG Version: 6.00 Build 0)  -->
<svg version="1.1" id="Calque_1" xmlns="http://www.w3.org/2000/svg" xmlns:xlink="http://www.w3.org/1999/xlink" x="0px" y="0px"
	 viewBox="0 0 200 140" style="enable-background:new 0 0 200 140;" xml:space="preserve">
<style type="text/css">
	.st0{fill:#FFFFFF;}
</style>
<g>
	<g>
		<path class="st0" d="M7.1,33.9V16.5h-4v-3.8h4V4.1h4.3v8.7h9.1v3.8h-9.1v16.8c0,3.5,1.9,4.8,4.8,4.8c1.4,0,2.7-0.3,4.2-1v3.7
			c-1.5,0.8-3.1,1.2-5.2,1.2C10.6,42,7.1,39.7,7.1,33.9z"/>
		<path class="st0" d="M28.1,0.9h4.3v16.8c1.9-3.1,4.9-5.6,9.8-5.6c6.9,0,11,4.7,11,11.5v17.8h-4.3V24.7c0-5.3-2.9-8.7-7.9-8.7
			c-4.9,0-8.6,3.6-8.6,9v16.4h-4.3V0.9z"/>
		<path class="st0" d="M60.1,33.1V33c0-6.1,5-9.3,12.3-9.3c3.7,0,6.3,0.5,8.8,1.2v-1c0-5.2-3.2-7.8-8.6-7.8c-3.4,0-6.1,0.9-8.7,2.1
			l-1.3-3.5c3.2-1.4,6.3-2.4,10.4-2.4c4.1,0,7.2,1.1,9.3,3.2c1.9,1.9,2.9,4.7,2.9,8.4v17.6h-4.1v-4.3c-2,2.6-5.3,4.9-10.4,4.9
			C65.5,42.1,60.1,39,60.1,33.1z M81.3,30.9v-2.8c-2.1-0.6-4.9-1.2-8.4-1.2c-5.4,0-8.4,2.3-8.4,5.9V33c0,3.6,3.3,5.7,7.2,5.7
			C76.9,38.7,81.3,35.5,81.3,30.9z"/>
		<path class="st0" d="M95.7,33.9V16.5h-4v-3.8h4V4.1h4.3v8.7h9.1v3.8h-9.1v16.8c0,3.5,1.9,4.8,4.8,4.8c1.4,0,2.7-0.3,4.2-1v3.7
			c-1.5,0.8-3.1,1.2-5.2,1.2C99.2,42,95.7,39.7,95.7,33.9z"/>
		<path class="st0" d="M7.1,78.3V61h-4v-3.8h4v-8.7h4.3v8.7h9.1V61h-9.1v16.8c0,3.5,1.9,4.8,4.8,4.8c1.4,0,2.7-0.3,4.2-1v3.7
			c-1.5,0.8-3.1,1.2-5.2,1.2C10.6,86.4,7.1,84.1,7.1,78.3z"/>
		<path class="st0" d="M25.5,71.6v-0.1c0-8.3,5.8-14.9,13.8-14.9c8.5,0,13.4,6.8,13.4,15.2c0,0.6,0,0.9-0.1,1.4H29.8
			c0.6,6.2,5,9.7,10.1,9.7c3.9,0,6.7-1.6,9.1-4.1l2.7,2.4c-2.9,3.2-6.4,5.4-11.8,5.4C31.9,86.6,25.5,80.5,25.5,71.6z M48.3,70
			c-0.4-5.2-3.4-9.8-9.2-9.8c-5,0-8.8,4.2-9.3,9.8H48.3z"/>
		<path class="st0" d="M60.1,57.2h4.3v7.5c2.1-4.8,6.3-8.2,11.7-8v4.6h-0.3c-6.3,0-11.4,4.5-11.4,13.2v11.4h-4.3V57.2z"/>
		<path class="st0" d="M82.6,57.2h4.3v7.5c2.1-4.8,6.3-8.2,11.7-8v4.6h-0.3c-6.3,0-11.4,4.5-11.4,13.2v11.4h-4.3V57.2z"/>
		<path class="st0" d="M105.2,46.2h4.9v4.7h-4.9V46.2z M105.5,57.2h4.3v28.7h-4.3V57.2z"/>
		<path class="st0" d="M124,80.4v5.5h-4.3V45.3h4.3V63c2.3-3.4,5.7-6.4,11-6.4c6.9,0,13.7,5.4,13.7,14.9v0.1
			c0,9.4-6.8,14.9-13.7,14.9C129.6,86.5,126.2,83.6,124,80.4z M144.3,71.6v-0.1c0-6.8-4.7-11.1-10.1-11.1c-5.3,0-10.4,4.5-10.4,11.1
			v0.1c0,6.7,5.1,11.1,10.4,11.1C139.8,82.7,144.3,78.6,144.3,71.6z"/>
		<path class="st0" d="M157,45.3h4.3v40.5H157V45.3z"/>
		<path class="st0" d="M169.4,71.6v-0.1c0-8.3,5.8-14.9,13.8-14.9c8.5,0,13.4,6.8,13.4,15.2c0,0.6,0,0.9-0.1,1.4h-22.8
			c0.6,6.2,5,9.7,10.1,9.7c3.9,0,6.7-1.6,9.1-4.1l2.7,2.4c-2.9,3.2-6.4,5.4-11.8,5.4C175.9,86.6,169.4,80.5,169.4,71.6z M192.2,70
			c-0.4-5.2-3.4-9.8-9.2-9.8c-5,0-8.8,4.2-9.3,9.8H192.2z"/>
		<path class="st0" d="M5.3,135.3l1.9-3.3c3.3,2.4,6.9,3.7,11.1,3.7c6.3,0,10.4-3.5,10.4-10.2v-3.4c-2.5,3.3-6,6.1-11.3,6.1
			c-6.9,0-13.5-5.2-13.5-13.4v-0.1c0-8.4,6.7-13.6,13.5-13.6c5.4,0,8.9,2.7,11.2,5.8v-5.2H33v23.7c0,4.4-1.3,7.8-3.7,10.2
			c-2.6,2.6-6.4,3.8-10.9,3.8C13.6,139.3,9.1,138,5.3,135.3z M28.8,114.6v-0.1c0-5.9-5.1-9.7-10.6-9.7s-9.9,3.8-9.9,9.7v0.1
			c0,5.8,4.6,9.8,9.9,9.8C23.7,124.3,28.8,120.4,28.8,114.6z"/>
		<path class="st0" d="M40.3,122v-0.1c0-6.1,5-9.3,12.3-9.3c3.7,0,6.3,0.5,8.8,1.2v-1c0-5.2-3.2-7.8-8.6-7.8c-3.4,0-6.1,0.9-8.7,2.1
			l-1.3-3.5c3.2-1.4,6.3-2.4,10.4-2.4c4.1,0,7.2,1.1,9.3,3.2c1.9,1.9,2.9,4.7,2.9,8.4v17.6h-4.1V126c-2,2.6-5.3,4.9-10.4,4.9
			C45.7,130.9,40.3,127.9,40.3,122z M61.5,119.8V117c-2.1-0.6-4.9-1.2-8.4-1.2c-5.4,0-8.4,2.3-8.4,5.9v0.1c0,3.6,3.3,5.7,7.2,5.7
			C57.2,127.6,61.5,124.3,61.5,119.8z"/>
		<path class="st0" d="M74.7,101.6h4.3v4.8c1.9-2.8,4.4-5.4,9.3-5.4c4.7,0,7.7,2.5,9.2,5.7c2.1-3.2,5.1-5.7,10.1-5.7
			c6.6,0,10.7,4.4,10.7,11.6v17.8h-4.3v-16.8c0-5.6-2.8-8.7-7.4-8.7c-4.3,0-7.9,3.2-7.9,8.9v16.6h-4.3v-16.9c0-5.4-2.8-8.6-7.4-8.6
			c-4.6,0-8,3.8-8,9.1v16.4h-4.3V101.6z"/>
		<path class="st0" d="M125.7,116.1v-0.1c0-8.3,5.8-14.9,13.8-14.9c8.5,0,13.4,6.8,13.4,15.2c0,0.6,0,0.9-0.1,1.4H130
			c0.6,6.2,5,9.7,10.1,9.7c3.9,0,6.7-1.6,9.1-4.1l2.7,2.4c-2.9,3.2-6.4,5.4-11.8,5.4C132.1,131,125.7,124.9,125.7,116.1z
			 M148.5,114.4c-0.4-5.2-3.4-9.8-9.2-9.8c-5,0-8.8,4.2-9.3,9.8H148.5z"/>
	</g>
</g>
</svg>
