<?xml version="1.0" encoding="utf-8"?>
<!-- Generator: Adobe Illustrator 19.1.0, SVG Export Plug-In . SVG Version: 6.00 Build 0)  -->
<svg version="1.1" id="Calque_1" xmlns="http://www.w3.org/2000/svg" xmlns:xlink="http://www.w3.org/1999/xlink" x="0px" y="0px"
	 viewBox="0 0 100 100" style="enable-background:new 0 0 100 100;" xml:space="preserve">
<style type="text/css">
	.st0{fill:#FFFFFF;}
</style>
<path class="st0" d="M95.5,21.8c-3.3,1.5-6.9,2.5-10.7,2.9c3.9-2.3,6.8-6,8.2-10.3c-3.6,2.1-7.6,3.7-11.8,4.5
	c-3.4-3.6-8.3-5.9-13.6-5.9c-10.3,0-18.7,8.4-18.7,18.7c0,1.5,0.2,2.9,0.5,4.3c-15.5-0.8-29.2-8.2-38.4-19.5c-1.6,2.8-2.5,6-2.5,9.4
	c0,6.5,3.3,12.2,8.3,15.5c-3.1-0.1-5.9-0.9-8.4-2.3c0,0.1,0,0.2,0,0.2c0,9,6.4,16.6,15,18.3c-1.6,0.4-3.2,0.7-4.9,0.7
	c-1.2,0-2.4-0.1-3.5-0.3c2.4,7.4,9.3,12.8,17.4,13c-6.4,5-14.4,8-23.2,8c-1.5,0-3-0.1-4.4-0.3c8.3,5.3,18.1,8.4,28.6,8.4
	c34.3,0,53.1-28.4,53.1-53.1c0-0.8,0-1.6-0.1-2.4C89.8,28.8,93,25.6,95.5,21.8z"/>
</svg>
