<?xml version="1.0" encoding="utf-8"?>
<!-- Generator: Adobe Illustrator 19.1.0, SVG Export Plug-In . SVG Version: 6.00 Build 0)  -->
<svg version="1.1" id="Calque_1" xmlns="http://www.w3.org/2000/svg" xmlns:xlink="http://www.w3.org/1999/xlink" x="0px" y="0px"
	 viewBox="0 0 125 125" style="enable-background:new 0 0 125 125;" xml:space="preserve">
<style type="text/css">
	.st0{fill:#FFFFFF;}
</style>
<path id="White_2_" class="st0" d="M115.3,3.2H10.7c-3.6,0-6.5,2.9-6.5,6.5v104.5c0,3.6,2.9,6.5,6.5,6.5H67V75.2H51.7V57.5H67V44.4
	C67,29.3,76.3,21,89.8,21c6.5,0,12.1,0.5,13.7,0.7v15.9l-9.4,0c-7.4,0-8.8,3.5-8.8,8.6v11.3h17.6l-2.3,17.7H85.3v45.5h29.9
	c3.6,0,6.5-2.9,6.5-6.5V9.7C121.8,6.2,118.8,3.2,115.3,3.2z"/>
</svg>
