<?xml version="1.0" encoding="utf-8"?>
<!-- Generator: Adobe Illustrator 19.1.0, SVG Export Plug-In . SVG Version: 6.00 Build 0)  -->
<svg version="1.1" id="Calque_1" xmlns="http://www.w3.org/2000/svg" xmlns:xlink="http://www.w3.org/1999/xlink" x="0px" y="0px"
	 viewBox="0 0 200 35" style="enable-background:new 0 0 200 35;" xml:space="preserve">
<style type="text/css">
	.st0{fill:#BBDC00;}
</style>
<polygon class="st0" points="18.9,0.6 24.3,11.6 36.5,13.4 27.7,22 29.8,34 18.9,28.3 8.1,34 10.1,22 1.4,13.4 13.5,11.6 "/>
<polygon class="st0" points="59.4,0.6 64.8,11.6 77,13.4 68.2,22 70.2,34 59.4,28.3 48.5,34 50.6,22 41.8,13.4 54,11.6 "/>
<polygon class="st0" points="99.9,0.6 105.3,11.6 117.4,13.4 108.6,22 110.7,34 99.9,28.3 89,34 91.1,22 82.3,13.4 94.4,11.6 "/>
<polygon class="st0" points="140.3,0.6 145.8,11.6 157.9,13.4 149.1,22 151.2,34 140.3,28.3 129.5,34 131.6,22 122.8,13.4 
	134.9,11.6 "/>
<polygon class="st0" points="180.8,0.6 186.2,11.6 198.4,13.4 189.6,22 191.7,34 180.8,28.3 170,34 172,22 163.3,13.4 175.4,11.6 
	"/>
</svg>
